<svg xmlns="http://www.w3.org/2000/svg" xmlns:xlink="http://www.w3.org/1999/xlink" viewBox="0 0 792.98 145.22"><defs><style>.cls-1{fill:#f21da1;}.cls-2{fill:#1da1f2;}.cls-3{fill:url(#linear-gradient);}</style><linearGradient id="linear-gradient" y1="72.61" x2="120.37" y2="72.61" gradientUnits="userSpaceOnUse"><stop offset="0" stop-color="#1da1f2"/><stop offset="0.42" stop-color="#b940b7" stop-opacity="0.63"/><stop offset="0.58" stop-color="#f21da1" stop-opacity="0.5"/><stop offset="0.66" stop-color="#ed1b9d" stop-opacity="0.57"/><stop offset="0.82" stop-color="#e11493" stop-opacity="0.75"/><stop offset="1" stop-color="#d00c85"/></linearGradient></defs><g id="Layer_2" data-name="Layer 2"><g id="Layer_1-2" data-name="Layer 1"><path class="cls-1" d="M221.93,35.25a33.1,33.1,0,0,1-.19,3.79,8.75,8.75,0,0,1-.6,2.44,4,4,0,0,1-.94,1.35,1.75,1.75,0,0,1-1.2.46H187.22V69.43H217a2.06,2.06,0,0,1,1.21.37,3.1,3.1,0,0,1,.93,1.28,8.33,8.33,0,0,1,.61,2.4,39.26,39.26,0,0,1,0,7.51,9.35,9.35,0,0,1-.61,2.48,3.36,3.36,0,0,1-.93,1.39,1.91,1.91,0,0,1-1.21.42H187.22v36.2a2.32,2.32,0,0,1-.45,1.43,3.36,3.36,0,0,1-1.61,1,14.25,14.25,0,0,1-3,.64,50,50,0,0,1-9.58,0,13.46,13.46,0,0,1-3-.64,3.67,3.67,0,0,1-1.62-1,2.18,2.18,0,0,1-.49-1.43V33.37c0-2.2.57-3.79,1.69-4.77a6.13,6.13,0,0,1,4.17-1.46H219a1.86,1.86,0,0,1,1.2.41,3.51,3.51,0,0,1,.94,1.35,9.51,9.51,0,0,1,.6,2.52A34.25,34.25,0,0,1,221.93,35.25Z"/><path class="cls-1" d="M308.9,87.6a51.32,51.32,0,0,1-2.25,15.63,32.9,32.9,0,0,1-6.84,12.17,30.34,30.34,0,0,1-11.49,7.88,43,43,0,0,1-16.15,2.78,44.08,44.08,0,0,1-15.55-2.48,27.88,27.88,0,0,1-11-7.21,29.47,29.47,0,0,1-6.46-11.64A54,54,0,0,1,237.09,89a51.09,51.09,0,0,1,2.29-15.67,33,33,0,0,1,6.88-12.16,30.59,30.59,0,0,1,11.45-7.85,42.69,42.69,0,0,1,16.11-2.78,45.09,45.09,0,0,1,15.63,2.44,27.44,27.44,0,0,1,10.93,7.17,29.92,29.92,0,0,1,6.42,11.64A54.62,54.62,0,0,1,308.9,87.6Zm-19.45.75a48.79,48.79,0,0,0-.79-9.12A21.58,21.58,0,0,0,286,72a13.31,13.31,0,0,0-5-4.81,16.09,16.09,0,0,0-7.85-1.72A16.65,16.65,0,0,0,265.79,67a13.26,13.26,0,0,0-5.19,4.51,21.72,21.72,0,0,0-3,7.14,40.65,40.65,0,0,0-1,9.5,47.17,47.17,0,0,0,.82,9.13A22.74,22.74,0,0,0,260,104.5a12.6,12.6,0,0,0,5,4.77,16.32,16.32,0,0,0,7.81,1.69,16.71,16.71,0,0,0,7.43-1.54,13.17,13.17,0,0,0,5.19-4.47,20.54,20.54,0,0,0,3-7.09A41.94,41.94,0,0,0,289.45,88.35Z"/><path class="cls-1" d="M369.66,115.17a23.37,23.37,0,0,1-.41,5.07,5.43,5.43,0,0,1-1.09,2.48,5.9,5.9,0,0,1-2,1.28,18.4,18.4,0,0,1-3.08,1,30.86,30.86,0,0,1-3.83.64,38.56,38.56,0,0,1-4.17.23,30,30,0,0,1-9.76-1.43,16.3,16.3,0,0,1-6.84-4.39,18.31,18.31,0,0,1-4-7.48,39.4,39.4,0,0,1-1.28-10.66V67.55h-8c-1,0-1.68-.59-2.18-1.77a16.42,16.42,0,0,1-.75-5.89,29.26,29.26,0,0,1,.19-3.68,8.69,8.69,0,0,1,.56-2.37A2.7,2.7,0,0,1,324,52.6a2.29,2.29,0,0,1,1.31-.38h8V37.28a2.35,2.35,0,0,1,.42-1.36,3.08,3.08,0,0,1,1.5-1,12.32,12.32,0,0,1,2.93-.6c1.23-.12,2.74-.19,4.54-.19s3.4.07,4.62.19a11.73,11.73,0,0,1,2.89.6,3.38,3.38,0,0,1,1.51,1,2.24,2.24,0,0,1,.45,1.36V52.22h14.57a2.29,2.29,0,0,1,1.31.38,2.7,2.7,0,0,1,.94,1.24,9,9,0,0,1,.57,2.37,31.55,31.55,0,0,1,.18,3.68,16.42,16.42,0,0,1-.75,5.89c-.5,1.18-1.22,1.77-2.17,1.77H352.09V99c0,3.66.57,6.4,1.73,8.23S357,110,360,110a13.05,13.05,0,0,0,2.71-.26,17.41,17.41,0,0,0,2.14-.61c.63-.22,1.15-.42,1.58-.6a3.14,3.14,0,0,1,1.16-.26,1.66,1.66,0,0,1,.87.26,1.82,1.82,0,0,1,.63,1,17,17,0,0,1,.42,2.15A27,27,0,0,1,369.66,115.17Z"/><path class="cls-1" d="M455.74,87.6a51.32,51.32,0,0,1-2.25,15.63,32.9,32.9,0,0,1-6.84,12.17,30.34,30.34,0,0,1-11.49,7.88A43,43,0,0,1,419,126.06a44.08,44.08,0,0,1-15.55-2.48,27.92,27.92,0,0,1-11-7.21A29.72,29.72,0,0,1,386,104.73,54.3,54.3,0,0,1,383.93,89a50.79,50.79,0,0,1,2.29-15.67,33.07,33.07,0,0,1,6.87-12.16,30.71,30.71,0,0,1,11.46-7.85,42.65,42.65,0,0,1,16.11-2.78,45.09,45.09,0,0,1,15.63,2.44,27.44,27.44,0,0,1,10.93,7.17,30.05,30.05,0,0,1,6.42,11.64A54.62,54.62,0,0,1,455.74,87.6Zm-19.45.75a49.65,49.65,0,0,0-.79-9.12A21.58,21.58,0,0,0,432.83,72a13.38,13.38,0,0,0-5-4.81A16.09,16.09,0,0,0,420,65.45,16.73,16.73,0,0,0,412.62,67a13.23,13.23,0,0,0-5.18,4.51,21.72,21.72,0,0,0-3,7.14,40.12,40.12,0,0,0-1,9.5,47.17,47.17,0,0,0,.82,9.13,22.5,22.5,0,0,0,2.67,7.24,12.64,12.64,0,0,0,5,4.77,16.39,16.39,0,0,0,7.82,1.69,16.71,16.71,0,0,0,7.43-1.54A13.14,13.14,0,0,0,432.3,105a20.36,20.36,0,0,0,3-7.09A41.94,41.94,0,0,0,436.29,88.35Z"/><path class="cls-2" d="M540.84,121.78a2.07,2.07,0,0,1-.45,1.32,3.33,3.33,0,0,1-1.5.93,12.52,12.52,0,0,1-2.9.57c-1.22.12-2.74.19-4.54.19s-3.39-.07-4.62-.19a12.41,12.41,0,0,1-2.89-.57,3.33,3.33,0,0,1-1.5-.93,2.07,2.07,0,0,1-.45-1.32V83.55a31.91,31.91,0,0,0-.72-7.66,14.86,14.86,0,0,0-2.06-4.77,9.12,9.12,0,0,0-3.5-3.08,10.79,10.79,0,0,0-5-1.09,12.5,12.5,0,0,0-7.29,2.63,39.12,39.12,0,0,0-7.66,7.66v44.54a2.07,2.07,0,0,1-.45,1.32,3.33,3.33,0,0,1-1.54.93,13.12,13.12,0,0,1-2.89.57c-1.2.12-2.73.19-4.58.19s-3.38-.07-4.59-.19a13.12,13.12,0,0,1-2.89-.57,3.38,3.38,0,0,1-1.54-.93,2.07,2.07,0,0,1-.45-1.32V23a2.19,2.19,0,0,1,.45-1.35,3.36,3.36,0,0,1,1.54-1,12.67,12.67,0,0,1,2.89-.64,47.89,47.89,0,0,1,9.17,0,12.67,12.67,0,0,1,2.89.64,3.3,3.3,0,0,1,1.54,1,2.19,2.19,0,0,1,.45,1.35V60a36.22,36.22,0,0,1,10-7.18,24.79,24.79,0,0,1,10.56-2.36,26.57,26.57,0,0,1,11.53,2.25,20,20,0,0,1,7.58,6.16A25.15,25.15,0,0,1,539.56,68a54.06,54.06,0,0,1,1.28,12.65Z"/><path class="cls-2" d="M633.3,87.6a51.32,51.32,0,0,1-2.25,15.63,33,33,0,0,1-6.84,12.17,30.34,30.34,0,0,1-11.49,7.88,43,43,0,0,1-16.15,2.78A44.08,44.08,0,0,1,581,123.58a27.92,27.92,0,0,1-11-7.21,29.72,29.72,0,0,1-6.46-11.64A54.3,54.3,0,0,1,561.49,89a50.79,50.79,0,0,1,2.29-15.67,33.07,33.07,0,0,1,6.87-12.16,30.71,30.71,0,0,1,11.46-7.85,42.65,42.65,0,0,1,16.11-2.78,45.09,45.09,0,0,1,15.63,2.44,27.4,27.4,0,0,1,10.92,7.17,30.07,30.07,0,0,1,6.43,11.64A54.62,54.62,0,0,1,633.3,87.6Zm-19.45.75a49.65,49.65,0,0,0-.79-9.12A21.58,21.58,0,0,0,610.39,72a13.38,13.38,0,0,0-5-4.81,16.09,16.09,0,0,0-7.85-1.72A16.73,16.73,0,0,0,590.18,67,13.23,13.23,0,0,0,585,71.49a21.72,21.72,0,0,0-3,7.14,40.12,40.12,0,0,0-1,9.5,47.17,47.17,0,0,0,.82,9.13,22.5,22.5,0,0,0,2.67,7.24,12.58,12.58,0,0,0,5,4.77,16.39,16.39,0,0,0,7.82,1.69,16.71,16.71,0,0,0,7.43-1.54,13.21,13.21,0,0,0,5.18-4.47,20.36,20.36,0,0,0,3-7.09A41.94,41.94,0,0,0,613.85,88.35Z"/><path class="cls-2" d="M673.33,121.78a2.07,2.07,0,0,1-.45,1.32,3.33,3.33,0,0,1-1.54.93,13.12,13.12,0,0,1-2.89.57c-1.2.12-2.73.19-4.58.19s-3.38-.07-4.59-.19a13.12,13.12,0,0,1-2.89-.57,3.38,3.38,0,0,1-1.54-.93,2.07,2.07,0,0,1-.45-1.32V23a2.19,2.19,0,0,1,.45-1.35,3.36,3.36,0,0,1,1.54-1,12.67,12.67,0,0,1,2.89-.64,47.89,47.89,0,0,1,9.17,0,12.67,12.67,0,0,1,2.89.64,3.3,3.3,0,0,1,1.54,1,2.19,2.19,0,0,1,.45,1.35Z"/><path class="cls-2" d="M718.69,32.09q0,5.71-2.32,7.89t-8.64,2.18q-6.39,0-8.6-2.1c-1.48-1.41-2.22-3.93-2.22-7.59s.76-6.45,2.29-7.93,4.42-2.21,8.68-2.21,7.06.71,8.56,2.14S718.69,28.44,718.69,32.09Zm-1.42,89.69a2.07,2.07,0,0,1-.45,1.32,3.38,3.38,0,0,1-1.54.93,13.1,13.1,0,0,1-2.9.57c-1.2.12-2.73.19-4.58.19s-3.38-.07-4.58-.19a13,13,0,0,1-2.89-.57,3.33,3.33,0,0,1-1.54-.93,2.07,2.07,0,0,1-.45-1.32V54.93a2.07,2.07,0,0,1,.45-1.32,3.52,3.52,0,0,1,1.54-1,12.55,12.55,0,0,1,2.89-.64,45.72,45.72,0,0,1,9.16,0,12.65,12.65,0,0,1,2.9.64,3.58,3.58,0,0,1,1.54,1,2.07,2.07,0,0,1,.45,1.32Z"/><path class="cls-2" d="M793,111.11q0,2-.12,3.27a17.13,17.13,0,0,1-.3,2.22,6.18,6.18,0,0,1-.45,1.46,5.31,5.31,0,0,1-1.16,1.43,16.1,16.1,0,0,1-3.08,2.1,30.05,30.05,0,0,1-5,2.22,40.09,40.09,0,0,1-6,1.58,37.08,37.08,0,0,1-6.72.6,36.34,36.34,0,0,1-13.71-2.41,25.73,25.73,0,0,1-10-7.09A31.18,31.18,0,0,1,740.28,105a53.22,53.22,0,0,1-2.06-15.47,53.88,53.88,0,0,1,2.51-17.39,33.11,33.11,0,0,1,7-12.13,27.93,27.93,0,0,1,10.66-7.14,38,38,0,0,1,13.52-2.33,34.16,34.16,0,0,1,11.31,2,29.08,29.08,0,0,1,4.51,2,13.83,13.83,0,0,1,2.81,2,8,8,0,0,1,1.17,1.39,4.67,4.67,0,0,1,.52,1.46,17.13,17.13,0,0,1,.3,2.22c.08.87.12,1.94.12,3.19a17.33,17.33,0,0,1-.76,6.12q-.75,1.77-1.95,1.77a4.57,4.57,0,0,1-2.7-1.06c-.95-.7-2.08-1.47-3.38-2.32A25,25,0,0,0,779.23,67a17.85,17.85,0,0,0-6.46-1,12.85,12.85,0,0,0-11.27,5.67q-3.9,5.67-3.9,16.63a41.76,41.76,0,0,0,1,9.54,20.17,20.17,0,0,0,2.9,6.91,12,12,0,0,0,4.8,4.17,15.32,15.32,0,0,0,6.73,1.39,17.49,17.49,0,0,0,6.72-1.16,27.56,27.56,0,0,0,4.92-2.59c1.4-.95,2.58-1.82,3.53-2.59a4.16,4.16,0,0,1,2.4-1.17,1.71,1.71,0,0,1,1.13.38,2.61,2.61,0,0,1,.71,1.39,16.27,16.27,0,0,1,.42,2.59Q793,108.64,793,111.11Z"/><path class="cls-3" d="M111.4,91.73a0,0,0,0,0,0,0,60.2,60.2,0,0,1-8.64,10.92L60.18,145.22A37.51,37.51,0,0,1,57.32,142c-.27-.36-.55-.73-.83-1.08a35.12,35.12,0,0,1-2-3l0-.1c-.33-.52-.62-1.05-.9-1.59a36.66,36.66,0,0,1-2.1-4.81c-.2-.56-.38-1.11-.55-1.68-.11-.36-.2-.71-.29-1.07a27.28,27.28,0,0,1-.71-3.1c-.08-.42-.14-.83-.2-1.25s-.14-1-.19-1.53-.09-.88-.11-1.31a37,37,0,0,1,7.07-24.37,39,39,0,0,1,3.69-4.29L76.55,76.49a23.15,23.15,0,1,0-32.75,0,12.3,12.3,0,0,1,0,17.45l-8.71,8.73a12.27,12.27,0,0,1-17.29.17c-.06-.06-.12-.1-.18-.17A60.19,60.19,0,1,1,111.4,91.73Z"/></g></g></svg>