<svg xmlns="http://www.w3.org/2000/svg" xmlns:xlink="http://www.w3.org/1999/xlink" viewBox="0 0 191.19 230.66"><defs><style>.cls-1{fill:url(#linear-gradient);}</style><linearGradient id="linear-gradient" y1="115.33" x2="191.19" y2="115.33" gradientUnits="userSpaceOnUse"><stop offset="0" stop-color="#1da1f2"/><stop offset="0.42" stop-color="#b940b7" stop-opacity="0.63"/><stop offset="0.58" stop-color="#f21da1" stop-opacity="0.5"/><stop offset="0.66" stop-color="#ed1b9d" stop-opacity="0.57"/><stop offset="0.82" stop-color="#e11493" stop-opacity="0.75"/><stop offset="1" stop-color="#d00c85"/></linearGradient></defs><g id="Layer_2" data-name="Layer 2"><g id="Layer_1-2" data-name="Layer 1"><path class="cls-1" d="M176.94,145.7a0,0,0,0,0,0,0,96,96,0,0,1-13.72,17.35L95.58,230.66a60.49,60.49,0,0,1-4.53-5.1l-1.32-1.71a50.72,50.72,0,0,1-3.14-4.76l-.08-.15c-.51-.83-1-1.66-1.42-2.52a56.2,56.2,0,0,1-3.33-7.65c-.32-.88-.61-1.76-.88-2.67-.17-.56-.32-1.13-.47-1.69-.46-1.62-.83-3.26-1.13-4.93-.12-.66-.22-1.32-.31-2s-.23-1.6-.3-2.43-.15-1.4-.17-2.08a58.68,58.68,0,0,1,11.23-38.71,61.25,61.25,0,0,1,5.85-6.81l26-26A36.85,36.85,0,0,0,119.9,67.9a36.77,36.77,0,0,0-50.32,53.59,19.56,19.56,0,0,1,0,27.72L55.73,163.08a19.49,19.49,0,0,1-27.45.27l-.3-.27A95.54,95.54,0,0,1,29.57,26.33C65-7.59,121.42-8.91,158.38,23.39A95.59,95.59,0,0,1,176.94,145.7Z"/></g></g></svg>